<?xml version="1.0" encoding="UTF-8"?>
<svg id="Capa_1" data-name="Capa 1" xmlns="http://www.w3.org/2000/svg" viewBox="0 0 1920 1080">
  <circle cx="282.24" cy="704.56" r="7.52" style="fill: none;" />
  <circle cx="355.38" cy="755.04" r="7.52" style="fill: none;" />
  <circle cx="404.71" cy="787.61" r="7.52" style="fill: none;" />
  <circle cx="463.76" cy="835.61" r="7.52" style="fill: none;" />
  <circle cx="535.76" cy="799.8" r="7.52" style="fill: none;" />
  <circle cx="604.42" cy="773.96" r="7.52" style="fill: none;" />
  <circle cx="664.23" cy="748.25" r="7.52" style="fill: none;" />
  <circle cx="711.66" cy="716.25" r="7.52" style="fill: none;" />
  <circle cx="745.05" cy="679.68" r="7.52" style="fill: none;" />
  <circle cx="780.9" cy="637.84" r="7.52" style="fill: none;" />
  <circle cx="809.95" cy="597.73" r="7.52" style="fill: none;" />
  <circle cx="875.66" cy="533.93" r="7.52" style="fill: none;" />
  <circle cx="805.38" cy="494.5" r="7.52" style="fill: none;" />
  <circle cx="894.71" cy="465.54" r="7.52" style="fill: none;" />
  <circle cx="961.38" cy="508.4" r="7.52" style="fill: none;" />
  <circle cx="1070.71" cy="498.31" r="7.52" style="fill: none;" />
  <circle cx="1186.71" cy="502.98" r="7.52" style="fill: none;" />
  <circle cx="1282.45" cy="432.12" r="7.52" style="fill: none;" />
  <circle cx="1409.95" cy="367.61" r="7.52" style="fill: none;" />
  <circle cx="1466.33" cy="351.1" r="7.52" style="fill: none;" />
  <circle cx="1529.31" cy="354.15" r="7.52" style="fill: none;" />
  <circle cx="1613.88" cy="411.29" r="7.52" style="fill: none;" />
  <circle cx="1185.21" cy="445.83" r="7.52" style="fill: none;" />
  <circle cx="1087.18" cy="442.79" r="7.52" style="fill: none;" />
  <circle cx="999.05" cy="439.64" r="7.52" style="fill: none;" />
  <circle cx="984" cy="389.76" r="7.52" style="fill: none;" />
  <circle cx="976.48" cy="333.89" r="7.52" style="fill: none;" />
  <circle cx="999.05" cy="278.52" r="7.52" style="fill: none;" />
  <circle cx="1114.86" cy="202.9" r="7.52" style="fill: none;" />
  <circle cx="1040.54" cy="169.63" r="7.52" style="fill: none;" />
  <circle cx="1079.91" cy="143.48" r="7.52" style="fill: none;" />
  <circle cx="1153.81" cy="177.16" r="7.52" style="fill: none;" />
  <circle cx="1298.83" cy="239.54" r="7.52" style="fill: none;" />
  <circle cx="1127.15" cy="116.05" r="7.52" style="fill: none;" />
  <circle cx="1216.04" cy="148.3" r="7.52" style="fill: none;" />
  <circle cx="1263.02" cy="192.21" r="7.52" style="fill: none;" />
  <circle cx="1185.56" cy="99.79" r="7.52" style="fill: none;" />
  <circle cx="1300.35" cy="133.25" r="7.52" style="fill: none;" />
  <circle cx="1327.78" cy="177.16" r="7.52" style="fill: none;" />
  <circle cx="1362.83" cy="227.29" r="7.52" style="fill: none;" />
  <circle cx="1066.35" cy="297.67" r="7.52" style="fill: none;" />
  <circle cx="1171.66" cy="234.81" r="7.52" style="fill: none;" />
  <circle cx="1238.96" cy="267.06" r="7.52" style="fill: none;" />
  <circle cx="1048.07" cy="331.54" r="7.52" style="fill: none;" />
  <circle cx="1068.13" cy="369.89" r="7.52" style="fill: none;" />
  <circle cx="1116.39" cy="391.73" r="7.52" style="fill: none;" />
  <circle cx="1179.18" cy="396.3" r="7.52" style="fill: none;" />
  <circle cx="1238.36" cy="388.78" r="7.52" style="fill: none;" />
  <circle cx="897.57" cy="627.83" r="7.52" style="fill: none;" />
  <circle cx="788.42" cy="749.2" r="7.52" style="fill: none;" />
  <circle cx="824.99" cy="708.72" r="7.52" style="fill: none;" />
  <circle cx="863.09" cy="666.25" r="7.52" style="fill: none;" />
  <circle cx="742.33" cy="786.91" r="7.52" style="fill: none;" />
  <circle cx="604.42" cy="840.51" r="7.52" style="fill: none;" />
  <circle cx="675.28" cy="814.98" r="7.52" style="fill: none;" />
  <circle cx="534.36" cy="735.16" r="7.52" style="fill: none;" />
  <circle cx="613.6" cy="692.24" r="7.52" style="fill: none;" />
  <circle cx="658.93" cy="651.99" r="7.52" style="fill: none;" />
  <circle cx="692.46" cy="605.26" r="7.52" style="fill: none;" />
  <circle cx="726.87" cy="562.21" r="7.52" style="fill: none;" />
  <circle cx="533.09" cy="879.42" r="7.52" style="fill: none;" />
  <circle cx="402.24" cy="717.32" r="7.52" style="fill: none;" />
  <circle cx="432.52" cy="674.08" r="7.52" style="fill: none;" />
  <circle cx="469.09" cy="620.05" r="7.52" style="fill: none;" />
  <circle cx="518.04" cy="577.77" r="7.52" style="fill: none;" />
  <circle cx="480.08" cy="514.72" r="7.52" style="fill: none;" />
  <circle cx="572.9" cy="542.62" r="7.52" style="fill: none;" />
  <circle cx="557.85" cy="480.52" r="7.52" style="fill: none;" />
  <circle cx="590.43" cy="439.76" r="7.52" style="fill: none;" />
  <circle cx="678.81" cy="463.57" r="7.52" style="fill: none;" />
  <circle cx="714.24" cy="429.76" r="7.52" style="fill: none;" />
  <circle cx="758.11" cy="389.76" r="7.52" style="fill: none;" />
  <circle cx="812.77" cy="364.33" r="7.52" style="fill: none;" />
  <circle cx="622.24" cy="403" r="7.52" style="fill: none;" />
  <circle cx="656.52" cy="364.33" r="7.52" style="fill: none;" />
  <circle cx="697.66" cy="333.86" r="7.52" style="fill: none;" />
  <circle cx="758.11" cy="305.92" r="7.52" style="fill: none;" />
  <circle cx="823" cy="297.67" r="7.52" style="fill: none;" />
  <circle cx="879.5" cy="353.41" r="7.52" style="fill: none;" />
  <circle cx="888.77" cy="295.89" r="7.52" style="fill: none;" />
  <circle cx="628.9" cy="521.1" r="7.52" style="fill: none;" />
  <circle cx="324.52" cy="649.58" r="7.52" style="fill: none;" />
  <circle cx="367.19" cy="605" r="7.52" style="fill: none;" />
  <circle cx="412.24" cy="557.67" r="7.52" style="fill: none;" />
  <rect width="1920" height="1080" style="fill: none;" />
</svg>