<?xml version="1.0" encoding="UTF-8"?>
<svg xmlns="http://www.w3.org/2000/svg" version="1.1" viewBox="0 0 1920 1080">
  <!-- Generator: Adobe Illustrator 29.3.0, SVG Export Plug-In . SVG Version: 2.1.0 Build 67)  -->
  <defs>
    <style>
      .st0 {
        fill: none;
      }

      .st1 {
        fill: #d70f0f;
      }
    </style>
  </defs>
  <g id="Capa_4">
    <rect class="st0" y="-.5" width="1920" height="1080.5"/>
  </g>
  <g id="an-vecindario-1">
    <g id="red">
      <path class="st1" d="M930.44,569.93c-10.14,0-18.35,8.22-18.35,18.35s18.35,33.73,18.35,33.73c0,0,18.35-23.59,18.35-33.73s-8.22-18.35-18.35-18.35ZM930.44,598.95c-5.88,0-10.67-4.78-10.67-10.67s4.78-10.67,10.67-10.67,10.67,4.79,10.67,10.67-4.79,10.67-10.67,10.67Z"/>
    </g>
    <g id="red1" data-name="red">
      <path class="st1" d="M722.44,755.93c-10.14,0-18.35,8.22-18.35,18.35s18.35,33.73,18.35,33.73c0,0,18.35-23.59,18.35-33.73s-8.22-18.35-18.35-18.35ZM722.44,784.95c-5.88,0-10.67-4.78-10.67-10.67s4.78-10.67,10.67-10.67,10.67,4.79,10.67,10.67-4.79,10.67-10.67,10.67Z"/>
    </g>
    <g id="red2" data-name="red">
      <path class="st1" d="M1563.44,775.93c-10.14,0-18.35,8.22-18.35,18.35s18.35,33.73,18.35,33.73c0,0,18.35-23.59,18.35-33.73s-8.22-18.35-18.35-18.35ZM1563.44,804.95c-5.88,0-10.67-4.78-10.67-10.67s4.78-10.67,10.67-10.67,10.67,4.79,10.67,10.67-4.79,10.67-10.67,10.67Z"/>
    </g>
  </g>
  <g id="an-vecindario-2">
    <g id="red3" data-name="red">
      <path class="st1" d="M778.44,848.93c-10.14,0-18.35,8.22-18.35,18.35s18.35,33.73,18.35,33.73c0,0,18.35-23.59,18.35-33.73s-8.22-18.35-18.35-18.35ZM778.44,877.95c-5.88,0-10.67-4.78-10.67-10.67s4.78-10.67,10.67-10.67,10.67,4.79,10.67,10.67-4.79,10.67-10.67,10.67Z"/>
    </g>
    <g id="red4" data-name="red">
      <path class="st1" d="M448.44,608.93c-10.14,0-18.35,8.22-18.35,18.35s18.35,33.73,18.35,33.73c0,0,18.35-23.59,18.35-33.73s-8.22-18.35-18.35-18.35ZM448.44,637.95c-5.88,0-10.67-4.78-10.67-10.67s4.78-10.67,10.67-10.67,10.67,4.79,10.67,10.67-4.79,10.67-10.67,10.67Z"/>
    </g>
    <g id="red5" data-name="red">
      <path class="st1" d="M1471.44,907.93c-10.14,0-18.35,8.22-18.35,18.35s18.35,33.73,18.35,33.73c0,0,18.35-23.59,18.35-33.73s-8.22-18.35-18.35-18.35ZM1471.44,936.95c-5.88,0-10.67-4.78-10.67-10.67s4.78-10.67,10.67-10.67,10.67,4.79,10.67,10.67-4.79,10.67-10.67,10.67Z"/>
    </g>
  </g>
  <g id="an-vecindario-3">
    <g id="red6" data-name="red">
      <path class="st1" d="M659.65,693.96c-10.14,0-18.35,8.22-18.35,18.35s18.35,33.73,18.35,33.73c0,0,18.35-23.59,18.35-33.73s-8.22-18.35-18.35-18.35ZM659.65,722.98c-5.88,0-10.67-4.78-10.67-10.67s4.78-10.67,10.67-10.67,10.67,4.79,10.67,10.67-4.79,10.67-10.67,10.67Z"/>
    </g>
    <g id="red7" data-name="red">
      <path class="st1" d="M1824.65,528.96c-10.14,0-18.35,8.22-18.35,18.35s18.35,33.73,18.35,33.73c0,0,18.35-23.59,18.35-33.73s-8.22-18.35-18.35-18.35ZM1824.65,557.98c-5.88,0-10.67-4.78-10.67-10.67s4.78-10.67,10.67-10.67,10.67,4.79,10.67,10.67-4.79,10.67-10.67,10.67Z"/>
    </g>
    <g id="red8" data-name="red">
      <path class="st1" d="M124.65,991.96c-10.14,0-18.35,8.22-18.35,18.35s18.35,33.73,18.35,33.73c0,0,18.35-23.59,18.35-33.73s-8.22-18.35-18.35-18.35ZM124.65,1020.98c-5.88,0-10.67-4.78-10.67-10.67s4.78-10.67,10.67-10.67,10.67,4.79,10.67,10.67-4.79,10.67-10.67,10.67Z"/>
    </g>
  </g>
</svg>