<?xml version="1.0" encoding="UTF-8"?>
<svg xmlns="http://www.w3.org/2000/svg" viewBox="0 0 1922 1082">
  <g id="fondo">
    <rect x="1" y="1" width="1920" height="1080" style="fill: none; stroke: #000; stroke-miterlimit: 10; stroke-width: 2px;"/>
  </g>
  <g id="vecindario-1">
    <g id="trophy">
      <path d="M474.07,405.63l-22.66,46.96c-.94,1.95-3.72,1.95-4.66,0l-22.66-47.06c-3.66-7.6-3.53-16.55.61-23.89,3.93-6.96,11.14-13.64,24.38-13.64s20.5,6.75,24.42,13.77c4.11,7.35,4.23,16.28.57,23.87Z" style="fill: none; stroke: #000; stroke-miterlimit: 10; stroke-width: 2px;"/>
      <circle cx="449" cy="395" r="20" style="fill: none; stroke: #000; stroke-miterlimit: 10; stroke-width: 2px;"/>
    </g>
    <g id="tram-front">
      <path d="M1516.07,535.63l-22.66,46.96c-.94,1.95-3.72,1.95-4.66,0l-22.66-47.06c-3.66-7.6-3.53-16.55.61-23.89,3.93-6.96,11.14-13.64,24.38-13.64s20.5,6.75,24.42,13.77c4.11,7.35,4.23,16.28.57,23.87Z" style="fill: none; stroke: #000; stroke-miterlimit: 10; stroke-width: 2px;"/>
      <circle cx="1491" cy="525" r="20" style="fill: none; stroke: #000; stroke-miterlimit: 10; stroke-width: 2px;"/>
    </g>
  </g>
  <g id="vecindario-2">
    <g id="camera">
      <path d="M230.07,412.63l-22.66,46.96c-.94,1.95-3.72,1.95-4.66,0l-22.66-47.06c-3.66-7.6-3.53-16.55.61-23.89,3.93-6.96,11.14-13.64,24.38-13.64s20.5,6.75,24.42,13.77c4.11,7.35,4.23,16.28.57,23.87Z" style="fill: none; stroke: #000; stroke-miterlimit: 10; stroke-width: 2px;"/>
      <circle cx="205" cy="402" r="20" style="fill: none; stroke: #000; stroke-miterlimit: 10; stroke-width: 2px;"/>
    </g>
    <g id="gaduation-cap">
      <path d="M1274.07,403.63l-22.66,46.96c-.94,1.95-3.72,1.95-4.66,0l-22.66-47.06c-3.66-7.6-3.53-16.55.61-23.89,3.93-6.96,11.14-13.64,24.38-13.64s20.5,6.75,24.42,13.77c4.11,7.35,4.23,16.28.57,23.87Z" style="fill: none; stroke: #000; stroke-miterlimit: 10; stroke-width: 2px;"/>
      <circle cx="1249" cy="393" r="20" style="fill: none; stroke: #000; stroke-miterlimit: 10; stroke-width: 2px;"/>
    </g>
    <g id="Plane">
      <path d="M1769.07,360.63l-22.66,46.96c-.94,1.95-3.72,1.95-4.66,0l-22.66-47.06c-3.66-7.6-3.53-16.55.61-23.89,3.93-6.96,11.14-13.64,24.38-13.64s20.5,6.75,24.42,13.77c4.11,7.35,4.23,16.28.57,23.87Z" style="fill: none; stroke: #000; stroke-miterlimit: 10; stroke-width: 2px;"/>
      <circle cx="1744" cy="350" r="20" style="fill: none; stroke: #000; stroke-miterlimit: 10; stroke-width: 2px;"/>
    </g>
  </g>
  <g id="vecindario-3">
    <g id="Hospital">
      <path d="M436.07,405.63l-22.66,46.96c-.94,1.95-3.72,1.95-4.66,0l-22.66-47.06c-3.66-7.6-3.53-16.55.61-23.89,3.93-6.96,11.14-13.64,24.38-13.64s20.5,6.75,24.42,13.77c4.11,7.35,4.23,16.28.57,23.87Z" style="fill: none; stroke: #000; stroke-miterlimit: 10; stroke-width: 2px;"/>
      <circle cx="411" cy="395" r="20" style="fill: none; stroke: #000; stroke-miterlimit: 10; stroke-width: 2px;"/>
    </g>
    <g id="tree-pine">
      <path d="M1309.07,326.63l-22.66,46.96c-.94,1.95-3.72,1.95-4.66,0l-22.66-47.06c-3.66-7.6-3.53-16.55.61-23.89,3.93-6.96,11.14-13.64,24.38-13.64s20.5,6.75,24.42,13.77c4.11,7.35,4.23,16.28.57,23.87Z" style="fill: none; stroke: #000; stroke-miterlimit: 10; stroke-width: 2px;"/>
      <circle cx="1284" cy="316" r="20" style="fill: none; stroke: #000; stroke-miterlimit: 10; stroke-width: 2px;"/>
    </g>
  </g>
</svg>