<svg id="Capa_4" data-name="Capa 4" xmlns="http://www.w3.org/2000/svg" xmlns:xlink="http://www.w3.org/1999/xlink"
  viewBox="0 0 1920 1080">
  <defs>
    <filter id="drop-shadow-1" x="1270" y="731" width="441" height="189" filterUnits="userSpaceOnUse">
      <feOffset dx="7" dy="7" />
      <feGaussianBlur result="blur" stdDeviation="5" />
      <feFlood flood-color="#000" flood-opacity=".75" />
      <feComposite in2="blur" operator="in" />
      <feComposite in="SourceGraphic" />
    </filter>
    <filter id="drop-shadow-2" x="1133" y="756" width="162" height="114" filterUnits="userSpaceOnUse">
      <feOffset dx="7" dy="7" />
      <feGaussianBlur result="blur-2" stdDeviation="5" />
      <feFlood flood-color="#000" flood-opacity=".75" />
      <feComposite in2="blur-2" operator="in" />
      <feComposite in="SourceGraphic" />
    </filter>
  </defs>
  <rect id="rectangulo" width="1920" height="1080" style="fill: none;" />
  <path id="unidad-1" data-name="unidad-1"
    d="M1285.5,850.39l178.13,45.01c1.54.39,3.17.26,4.63-.36l214.31-91.16c2.69-1.14,4.43-3.78,4.43-6.7v-48.13c0-4.89-4.72-8.39-9.4-6.97l-211.91,64.39c-1.11.34-2.29.4-3.43.19l-173.66-31.95c-4.47-.82-8.6,2.61-8.6,7.16v61.45c0,3.33,2.26,6.24,5.5,7.06Z"
    style="fill: none; filter: url(#drop-shadow-1); stroke: #fff; stroke-miterlimit: 10; stroke-width: 4px;" />
  <path id="unidad-2" data-name="unidad-2"
    d="M1259.39,845.55l-108.75-22.94c-4.45-.94-7.64-4.87-7.64-9.42v-36.76c0-5.97,5.38-10.5,11.27-9.48l108.75,18.84c4.61.8,7.98,4.8,7.98,9.48v40.86c0,6.12-5.63,10.68-11.61,9.42Z"
    style="fill: none; filter: url(#drop-shadow-2); stroke: #fff; stroke-miterlimit: 10; stroke-width: 4px;" />
</svg>